:FULLY-SPECIFIED
:FORCE-ALL-JOINTS-BE-3DOF
:DEGREES
408
root 7.18138 13.7899 -34.2523 158.903 75.2249 152.733
lfemur 18.794 -2.63589 -10.3863
ltibia 27.4801 0 0
lfoot -23.3066 33.1267 0
ltoes -25.9912 0 0
rfemur -66.2752 -16.2813 8.28952
rtibia 79.076 0 0
rfoot -13.8145 12.6286 0
rtoes 7.98597 0 0
lowerback 8.43049 4.88028 -11.7665
upperback -2.54719 5.1499 -1.19047
thorax -8.45079 3.0811 4.44475
lowerneck 0.565921 -11.6309 -11.3592
upperneck 3.32619 -15.816 9.2652
head 2.53358 -7.9077 4.01844
lclavicle -5.49479e-15 1.06971e-14 0
lhumerus -70.0594 -20.1124 106.457
lradius 100.325 0 0
lwrist 50.7033 0 0
lhand -9.79286 42.8238 0
lfingers 7.12502 0 0
lthumb 15.9065 72.4782 0
rclavicle 1.25832e-14 4.12295e-15 0
rhumerus 49.7073 -4.87284 -60.3357
rradius 19.9477 0 0
rwrist 18.6691 0 0
rhand -21.8541 -33.771 0
rfingers 7.12502 0 0
rthumb 4.52705 -63.3458 0
409
root 7.18307 13.789 -34.2546 159.162 75.2329 152.989
lfemur 18.267 -2.6678 -10.2485
ltibia 27.8184 0 0
lfoot -23.3308 33.1414 0
ltoes -25.7227 0 0
rfemur -66.261 -16.2863 8.29255
rtibia 79.0772 0 0
rfoot -13.7602 12.5702 0
rtoes 7.83163 0 0
lowerback 8.43343 4.88416 -11.6738
upperback -2.55358 5.16431 -1.1933
thorax -8.45194 3.0835 4.38784
lowerneck 0.552846 -11.6394 -11.3478
upperneck 3.28713 -15.8252 9.27497
head 2.52485 -7.91174 4.01944
lclavicle -4.37326e-15 1.05356e-14 0
lhumerus -70.027 -20.2295 106.496
lradius 100.318 0 0
lwrist 50.7102 0 0
lhand -9.78371 42.8081 0
lfingers 7.12502 0 0
lthumb 15.9181 72.5184 0
rclavicle 1.25492e-14 4.31437e-15 0
rhumerus 49.7061 -4.82294 -60.3036
rradius 19.9621 0 0
rwrist 18.6169 0 0
rhand -21.7958 -33.877 0
rfingers 7.12502 0 0
rthumb 4.55337 -63.2758 0
410
root 7.18525 13.7872 -34.2555 159.247 75.2199 153.057
lfemur 17.74 -2.69971 -10.1107
ltibia 28.1567 0 0
lfoot -23.355 33.1561 0
ltoes -25.4541 0 0
rfemur -66.1978 -16.1624 8.30037
rtibia 79.0783 0 0
rfoot -13.7058 12.5119 0
rtoes 7.67729 0 0
lowerback 8.41829 4.88683 -11.6789
upperback -2.56099 5.1696 -1.18184
thorax -8.454 3.08704 4.40263
lowerneck 0.55933 -11.6358 -11.376
upperneck 3.24848 -15.8198 9.28579
head 2.51478 -7.90954 4.02848
lclavicle -5.18349e-15 1.06989e-14 0
lhumerus -69.9945 -20.3466 106.535
lradius 100.312 0 0
lwrist 50.7172 0 0
lhand -9.77457 42.7925 0
lfingers 7.12502 0 0
lthumb 15.9298 72.5585 0
rclavicle 1.25151e-14 4.50579e-15 0
rhumerus 49.7049 -4.77304 -60.2715
rradius 19.9765 0 0
rwrist 18.5648 0 0
rhand -21.7374 -33.983 0
rfingers 7.12502 0 0
rthumb 4.5797 -63.2057 0
411
root 7.1863 13.7847 -34.2571 159.297 75.1858 153.078
lfemur 17.213 -2.73162 -9.97289
ltibia 28.495 0 0
lfoot -23.3792 33.1709 0
ltoes -25.1856 0 0
rfemur -66.1345 -16.0385 8.30819
rtibia 79.0794 0 0
rfoot -13.6515 12.4535 0
rtoes 7.52296 0 0
lowerback 8.40914 4.89058 -11.6943
upperback -2.57162 5.17394 -1.17575
thorax -8.46346 3.09095 4.41678
lowerneck 0.553975 -11.6349 -11.3675
upperneck 3.2208 -15.8159 9.26617
head 2.50468 -7.9078 4.02246
lclavicle -5.99371e-15 1.08622e-14 0
lhumerus -69.9621 -20.4637 106.574
lradius 100.305 0 0
lwrist 50.7241 0 0
lhand -9.76542 42.7768 0
lfingers 7.12502 0 0
lthumb 15.9414 72.5987 0
rclavicle 1.24811e-14 4.69721e-15 0
rhumerus 49.7037 -4.72314 -60.2393
rradius 19.9908 0 0
rwrist 18.5127 0 0
rhand -21.6791 -34.089 0
rfingers 7.12502 0 0
rthumb 4.60602 -63.1356 0
